<mxfile host="app.diagrams.net" modified="2024-06-04T02:47:34.163Z" agent="Mozilla/5.0 (Windows NT 10.0; Win64; x64) AppleWebKit/537.36 (KHTML, like Gecko) Chrome/122.0.0.0 Safari/537.36 Edg/122.0.0.0" version="24.4.13" etag="4joztKf17F3WA1p4m-h4" type="github">
  <diagram name="第 1 页" id="_rqLWpZkN5Ejf-eTLv3R">
    <mxGraphModel>
      <root>
        <mxCell id="0" />
        <mxCell id="1" parent="0" />
      </root>
    </mxGraphModel>
  </diagram>
</mxfile>
